<svg width="1105" height="351" viewBox="0 0 1105 351" fill="none" xmlns="http://www.w3.org/2000/svg">
<g filter="url(#filter0_d_6_5)">
<path d="M82.3163 242.478C80.6504 242.712 79.0728 242.621 77.5837 242.204C76.1822 241.775 74.963 241.052 73.926 240.036C72.889 239.019 72.0966 237.834 71.5487 236.48C70.9885 235.039 70.8105 233.455 71.0148 231.727C70.6205 228.921 70.7392 226.267 71.371 223.764C72.0781 221.161 72.8914 218.678 73.8108 216.313C74.8056 213.849 75.6313 211.453 76.2877 209.125C77.0194 206.697 77.2067 204.212 76.8493 201.67C74.9203 201.941 72.9461 202.844 70.9266 204.38C68.9072 205.915 66.8993 207.852 64.903 210.189C62.9944 212.513 61.1228 215.101 59.2882 217.952C57.5289 220.703 55.8635 223.485 54.2919 226.299C52.7956 229.012 51.5062 231.608 50.4237 234.085C49.4289 236.549 48.6855 238.576 48.1936 240.165C48.0306 240.277 47.6045 240.427 46.9154 240.613C46.2139 240.712 45.7755 240.773 45.6002 240.798C44.2959 241.696 43.4191 241.82 42.9698 241.168C42.5958 240.415 42.4295 239.232 42.4707 237.617C42.5996 235.989 42.8792 234.161 43.3096 232.134C43.7276 230.019 44.1203 228.041 44.4876 226.201C44.9302 224.261 45.2468 222.697 45.4374 221.508C45.6156 220.231 45.5731 219.611 45.3101 219.648C45.5239 219.26 45.7506 218.647 45.9905 217.809C46.2303 216.97 46.4639 216.088 46.6914 215.162C46.9189 214.236 47.1149 213.404 47.2793 212.665C47.4315 211.839 47.4767 211.207 47.4151 210.769C47.3042 209.98 46.9296 209.54 46.2912 209.451C45.7281 209.262 45.1836 209.205 44.6575 209.279C42.956 208.624 41.3202 209.39 39.75 211.578C38.2552 213.665 36.7021 216.611 35.0906 220.414C33.5546 224.117 31.8733 228.376 30.0467 233.193C28.2954 237.91 26.2627 242.532 23.9484 247.06C21.9318 247.343 20.3604 247.296 19.2343 246.917C18.1082 246.539 17.3973 245.298 17.1016 243.194C17.6675 242.131 18.467 240.185 19.5002 237.358C20.5211 234.442 21.6803 231.24 22.978 227.749C24.2757 224.258 25.6549 220.712 27.1156 217.109C28.6639 213.493 30.1547 210.423 31.5879 207.897C33.0965 205.27 34.4968 203.464 35.7888 202.478C37.1561 201.392 38.3952 201.62 39.5062 203.163C40.8612 201.989 42.3662 200.928 44.0212 199.98C45.7639 199.02 47.5559 198.41 49.3972 198.151C50.6247 197.979 51.6885 198.232 52.5885 198.91C53.5639 199.488 54.3509 200.316 54.9494 201.394C55.6234 202.373 56.1782 203.457 56.6137 204.648C57.0369 205.751 57.3102 206.74 57.4334 207.617C58.3116 206.868 59.742 205.594 61.7245 203.795C63.7824 201.897 65.9718 199.98 68.2927 198.044C70.7013 196.096 73.053 194.38 75.3478 192.895C77.718 191.31 79.6923 190.407 81.2705 190.185C82.6734 189.988 83.931 190.347 85.0433 191.264C86.2311 192.08 86.9297 193.234 87.1391 194.725C85.067 202.884 83.4369 209.417 82.2487 214.323C81.1482 219.216 80.4759 223.021 80.2319 225.738C80.0631 228.354 80.3219 230.196 81.0082 231.262C81.7698 232.227 82.939 232.913 84.5159 233.317C86.8832 232.984 89.1074 232.269 91.1885 231.172C93.2696 230.075 95.2946 228.896 97.2633 227.636C99.3198 226.363 101.389 225.178 103.47 224.081C105.551 222.984 107.819 222.263 110.274 221.918C110.409 222.882 110.276 223.84 109.873 224.791C109.545 225.642 108.93 226.354 108.027 226.928C107.388 227.465 106.215 228.345 104.509 229.568C102.879 230.691 101.085 231.927 99.1288 233.275C97.16 234.535 95.2789 235.783 93.4855 237.019C91.7798 238.242 90.557 239.084 89.8172 239.546C88.1745 240.581 86.8894 241.299 85.9619 241.697C85.1097 241.996 83.8945 242.256 82.3163 242.478ZM105.767 279.551C107.932 274.598 110.603 270.065 113.78 265.952C116.97 261.928 120.272 258.066 123.686 254.367C127.188 250.656 130.659 247.039 134.097 243.516C137.536 239.992 140.638 236.293 143.401 232.418C146.253 228.53 148.572 224.359 150.36 219.905C152.136 215.364 153.074 210.27 153.175 204.623C153.15 204.447 153.07 204.19 152.933 203.852C152.871 203.414 152.828 203.107 152.803 202.931C151.119 205.582 149.04 208.602 146.566 211.989C144.179 215.365 141.504 218.602 138.542 221.7C135.668 224.787 132.556 227.459 129.208 229.718C125.859 231.977 122.475 233.347 119.056 233.827C118.179 233.951 117.033 234.067 115.618 234.176C114.278 234.186 112.92 234.064 111.543 233.81C110.166 233.557 108.94 233.103 107.865 232.45C106.789 231.796 106.159 230.812 105.974 229.496C105.814 228.357 105.874 226.56 106.156 224.106C106.437 221.653 106.9 218.905 107.545 215.864C108.191 212.822 108.962 209.719 109.858 206.553C110.754 203.387 111.775 200.472 112.921 197.807C114.066 195.143 115.229 192.923 116.411 191.147C117.679 189.36 118.927 188.379 120.155 188.207C121.382 188.034 122.472 188.15 123.422 188.552C124.373 188.955 124.935 189.77 125.107 190.998C125.415 193.19 124.934 195.493 123.664 197.907C122.394 200.32 121.017 202.928 119.533 205.73C118.037 208.443 116.703 211.358 115.531 214.473C114.36 217.588 114.032 220.987 114.55 224.67C120.337 223.857 125.388 221.94 129.702 218.919C134.004 215.811 137.787 212.195 141.052 208.07C144.317 203.945 147.101 199.575 149.403 194.96C151.705 190.345 153.699 186.086 155.386 182.183C157.16 178.267 158.67 175.015 159.916 172.426C161.237 169.737 162.467 168.312 163.607 168.152C165.273 167.918 166.311 168.308 166.722 169.323C167.208 170.239 167.556 171.442 167.766 172.932C167.359 175.761 166.713 179.115 165.827 182.995C164.93 186.787 164.019 190.805 163.095 195.047C162.247 199.19 161.486 203.321 160.813 207.439C160.228 211.544 159.988 215.244 160.093 218.538C160.105 218.625 160.124 218.757 160.148 218.932C160.261 219.095 160.323 219.22 160.335 219.308C161.84 218.56 163.201 217.43 164.419 215.918C165.637 214.405 166.811 212.899 167.941 211.399C169.147 209.799 170.378 208.374 171.633 207.125C172.875 205.788 174.242 205.015 175.732 204.805C175.82 204.793 176.213 205.364 176.912 206.517C177.698 207.659 177.908 209.149 177.54 210.989C176.837 211.714 175.539 212.969 173.644 214.755C171.837 216.529 169.91 218.41 167.865 220.396C165.807 222.295 163.88 224.175 162.086 226.036C160.278 227.81 159.036 229.147 158.358 230.047C157.303 231.447 156.278 233.38 155.283 235.844C154.288 238.309 153.33 241.036 152.409 244.027C151.501 247.105 150.611 250.315 149.739 253.656C148.955 256.985 148.159 260.227 147.35 263.38C146.554 266.621 145.721 269.6 144.851 272.315C144.081 275.106 143.33 277.402 142.6 279.203C142.26 279.966 141.531 281.455 140.411 283.668C139.392 285.958 138.215 288.403 136.882 291.004C135.637 293.594 134.373 296.051 133.09 298.377C131.908 300.779 130.983 302.473 130.318 303.461C130.028 303.949 129.206 305.093 127.849 306.893C126.505 308.78 124.96 310.83 123.215 313.043C121.569 315.331 119.918 317.574 118.26 319.775C116.514 321.987 115.183 323.649 114.266 324.762C113.301 325.523 112.002 326.466 110.372 327.589C108.754 328.8 107.067 329.842 105.312 330.714C103.47 331.599 101.684 332.252 99.9549 332.674C98.1383 333.108 96.5923 332.923 95.3169 332.119C94.0538 331.402 93.1806 329.96 92.6971 327.793C92.1384 325.726 92.1955 322.633 92.8685 318.515C93.4661 314.497 94.7927 309.303 96.8482 302.934C98.9037 296.565 101.877 288.771 105.767 279.551ZM143.09 245.471C142.915 245.495 142.614 245.582 142.188 245.732C141.862 245.956 141.617 246.125 141.454 246.237C141.303 246.437 140.952 246.799 140.4 247.324C139.848 247.849 139.214 248.43 138.499 249.067C137.871 249.691 137.244 250.316 136.616 250.941C136.076 251.553 135.693 252.009 135.467 252.309C133.259 254.408 130.798 257.257 128.085 260.857C125.385 264.545 122.596 268.558 119.718 272.897C116.941 277.31 114.232 281.893 111.592 286.646C108.964 291.486 106.656 296.057 104.668 300.36C102.604 304.763 101.017 308.741 99.9073 312.295C98.7973 315.849 98.3402 318.64 98.5359 320.669C98.7317 322.698 99.731 323.764 101.534 323.869C103.337 323.973 106.201 322.721 110.126 320.113C110.892 319.201 111.997 317.838 113.441 316.026C114.81 314.313 116.166 312.513 117.51 310.626C118.954 308.813 120.236 307.113 121.354 305.526C122.484 304.026 123.156 303.082 123.37 302.694C123.722 302.019 124.288 300.956 125.067 299.505C125.847 298.054 126.69 296.416 127.595 294.59C128.501 292.763 129.438 290.843 130.407 288.83C131.376 286.816 132.263 284.858 133.069 282.957C133.974 281.131 134.729 279.505 135.334 278.078C136.026 276.64 136.498 275.545 136.75 274.795C137.342 273.281 138.023 271.129 138.793 268.338C139.663 265.623 140.427 262.788 141.085 259.835C141.755 256.969 142.306 254.209 142.738 251.555C143.17 248.902 143.287 246.874 143.09 245.471ZM244.383 204.68C244.149 203.014 244.165 201.536 244.431 200.247C244.784 198.946 245.969 198.153 247.986 197.87C248.161 197.845 248.562 197.833 249.188 197.835C249.89 197.736 250.378 197.712 250.653 197.763C251.145 201.896 252.24 204.917 253.938 206.824C255.625 208.643 258.397 209.282 262.255 208.74C265.411 208.296 268.456 207.376 271.389 205.981C274.323 204.585 276.887 202.794 279.084 200.607C281.355 198.321 283.045 195.714 284.154 192.787C285.35 189.847 285.708 186.667 285.227 183.247C284.932 181.143 283.977 179.757 282.363 179.09C280.837 178.41 279.16 177.931 277.333 177.651C275.505 177.372 273.803 177.03 272.226 176.625C270.725 176.121 269.857 175.036 269.623 173.37C269.339 171.353 270.296 169.252 272.492 167.066C274.688 164.879 277.354 162.851 280.488 160.979C283.611 159.021 286.739 157.419 289.872 156.174C293.08 154.829 295.562 154.033 297.315 153.786C297.673 156.329 297.355 158.207 296.363 159.419C295.459 160.619 294.261 161.637 292.769 162.472C291.277 163.308 289.741 164.15 288.161 164.997C286.657 165.745 285.49 166.982 284.659 168.708C286.222 169.651 287.51 170.543 288.523 171.384C289.61 172.126 290.491 172.985 291.165 173.964C291.839 174.942 292.356 176.076 292.716 177.367C293.064 178.57 293.361 180.048 293.608 181.801C294.249 186.361 293.826 190.667 292.339 194.721C290.927 198.675 288.834 202.232 286.06 205.394C283.273 208.468 279.968 211.034 276.144 213.091C272.308 215.061 268.286 216.341 264.077 216.933C261.797 217.253 259.524 217.305 257.258 217.087C255.068 216.769 253.053 216.113 251.215 215.119C249.464 214.114 247.977 212.758 246.754 211.052C245.531 209.347 244.74 207.222 244.383 204.68ZM308.998 203.512C307.039 200.389 305.925 197.237 305.657 194.056C305.377 190.787 305.653 187.664 306.486 184.686C307.395 181.607 308.697 178.787 310.393 176.224C312.165 173.561 314.117 171.23 316.25 169.231C318.371 167.145 320.554 165.497 322.798 164.287C325.13 163.065 327.229 162.413 329.095 162.329C330.948 162.158 332.487 162.613 333.712 163.692C334.937 164.772 335.552 166.608 335.559 169.2C336.04 172.619 335.363 175.754 333.528 178.605C331.781 181.444 329.734 184.056 327.387 186.442C325.128 188.816 323.019 190.99 321.061 192.964C319.179 194.838 318.336 196.477 318.533 197.88C318.644 198.669 319.169 199.221 320.107 199.536C321.133 199.839 322.279 200.036 323.543 200.126C324.795 200.129 326.041 200.088 327.281 200.003C328.521 199.918 329.41 199.883 329.948 199.896C337.944 196.985 343.978 195.064 348.049 194.134C352.109 193.116 354.701 192.797 355.827 193.175C356.941 193.465 356.827 194.241 355.484 195.503C354.217 196.665 352.173 198.025 349.352 199.584C346.518 201.055 343.191 202.506 339.368 203.937C335.546 205.369 331.718 206.443 327.885 207.161C324.039 207.791 320.389 207.901 316.934 207.493C313.566 207.072 310.921 205.745 308.998 203.512ZM327.799 170.29C326.046 170.537 324.448 171.253 323.005 172.439C321.562 173.626 320.288 175.057 319.182 176.732C318.152 178.307 317.322 180.033 316.691 181.91C316.049 183.699 315.613 185.37 315.384 186.922C315.572 186.985 315.709 187.011 315.797 186.998L316.191 186.943C317.419 186.77 318.748 186.047 320.178 184.773C321.609 183.499 322.921 182.018 324.114 180.331C325.295 178.555 326.251 176.767 326.981 174.965C327.711 173.164 327.984 171.605 327.799 170.29ZM352.073 192.227C351.987 191.613 351.901 190.687 351.816 189.447C351.807 188.107 351.804 186.811 351.806 185.559C351.809 184.307 351.831 183.186 351.87 182.197C351.898 181.12 351.981 180.438 352.119 180.15L369.328 128.913C369.58 128.162 370.102 127.105 370.894 125.742C371.761 124.279 372.672 122.81 373.627 121.334C374.658 119.759 375.663 118.321 376.642 117.021C377.697 115.621 378.57 114.515 379.261 113.703C379.899 113.792 380.381 114.037 380.705 114.438C381.03 114.84 381.279 115.341 381.453 115.943C381.615 116.456 381.689 116.982 381.675 117.521C381.749 118.047 381.81 118.485 381.86 118.836C381.921 119.274 382.008 119.888 382.119 120.677C382.229 121.466 382.241 121.867 382.153 121.88C381.609 124.37 380.645 127.367 379.259 130.87C377.874 134.373 376.3 138.126 374.538 142.129C372.776 146.132 370.951 150.322 369.063 154.701C367.25 158.979 365.612 163.233 364.15 167.462C362.763 171.591 361.665 175.545 360.855 179.325C360.133 183.092 359.981 186.466 360.4 189.447C360.622 191.026 361.239 192.235 362.251 193.077C363.339 193.818 364.458 194.465 365.609 195.019C366.76 195.572 367.823 196.138 368.798 196.717C369.861 197.282 370.479 198.179 370.651 199.407C370.762 200.196 370.498 200.859 369.858 201.396C369.206 201.845 368.398 202.138 367.433 202.273C363.751 202.791 360.409 202.232 357.407 200.597C354.393 198.875 352.615 196.085 352.073 192.227ZM362.395 245.631C367.305 244.941 371.579 242.909 375.218 239.537C378.857 236.164 382.003 232.145 384.656 227.481C387.321 222.904 389.504 218.082 391.206 213.014C392.92 208.035 394.258 203.555 395.219 199.575C395.611 197.911 396.098 195.652 396.68 192.798C397.25 189.857 397.789 187.009 398.296 184.256C398.879 181.402 399.329 178.88 399.647 176.689C400.053 174.486 400.231 173.21 400.182 172.859L400.108 172.333C398.445 171.315 396.892 171.086 395.451 171.646C393.998 172.119 392.612 172.76 391.296 173.571C390.055 174.282 388.876 174.805 387.761 175.141C386.634 175.389 385.514 174.741 384.403 173.199C384.194 171.708 384.422 170.469 385.088 169.481C385.754 168.494 386.664 167.65 387.817 166.952C388.971 166.253 390.274 165.668 391.728 165.195C393.182 164.723 394.585 164.212 395.939 163.664C397.292 163.117 398.496 162.456 399.55 161.682C400.603 160.908 401.313 159.914 401.679 158.7L410.919 126.152C411.713 123.537 412.971 121.035 414.692 118.648C416.401 116.172 418.422 114.011 420.755 112.163C423.088 110.315 425.596 108.755 428.278 107.484C430.961 106.213 433.617 105.393 436.248 105.023C440.018 104.493 442.746 105.138 444.433 106.957C446.119 108.777 447.246 111.703 447.812 115.736C447.923 116.526 447.758 117.577 447.317 118.891C446.963 120.192 446.428 121.475 445.712 122.738C444.995 124.001 444.166 125.101 443.225 126.038C442.284 126.975 441.331 127.511 440.366 127.646C440.206 126.507 440.277 125.424 440.58 124.398C440.871 123.284 441.167 122.214 441.47 121.188C441.861 120.149 442.208 119.117 442.51 118.091C442.801 116.977 442.86 115.807 442.687 114.579C442.49 113.176 442.192 112.011 441.794 111.084C441.395 110.156 440.231 109.828 438.302 110.099C435.76 110.456 433.266 111.477 430.82 113.162C428.45 114.747 426.191 116.808 424.044 119.345C421.973 121.782 420.038 124.558 418.24 127.671C416.518 130.685 415.071 133.75 413.899 136.865C412.816 139.968 411.995 143.034 411.437 146.063C410.954 148.992 410.873 151.596 411.194 153.876C411.218 154.051 411.261 154.358 411.323 154.796C411.46 155.135 411.541 155.392 411.566 155.567C413.157 154.807 414.956 153.928 416.962 152.931C419.056 151.922 421.205 150.994 423.411 150.147C425.692 149.201 427.948 148.392 430.178 147.721C432.484 146.95 434.689 146.416 436.793 146.12C436.99 147.523 436.468 148.893 435.225 150.23C433.982 151.567 432.333 152.872 430.276 154.145C428.307 155.405 426.069 156.658 423.562 157.905C421.143 159.139 418.855 160.354 416.698 161.552C414.53 162.661 412.636 163.821 411.018 165.032C409.475 166.143 408.553 167.212 408.25 168.238C408.181 170.93 407.728 174.704 406.891 179.561C406.141 184.405 405.008 189.705 403.492 195.462C401.977 201.218 400.123 207.112 397.93 213.142C395.825 219.16 393.384 224.69 390.605 229.729C387.738 234.782 384.623 239.02 381.26 242.443C377.808 245.878 374.066 247.88 370.033 248.447C369.507 248.52 368.843 248.569 368.042 248.592C367.153 248.628 366.339 248.563 365.6 248.399C364.774 248.247 364.061 247.945 363.461 247.492C362.861 247.04 362.506 246.42 362.395 245.631ZM514.323 172.911C514.151 171.684 514.134 170.613 514.274 169.699C514.402 168.698 514.711 167.403 515.203 165.814C515.694 164.851 516.556 163.031 517.789 160.354C519.11 157.665 520.456 154.838 521.828 151.873C523.287 148.896 524.639 146.113 525.885 143.524C527.206 140.835 528.105 138.965 528.583 137.914C529.212 136.664 529.74 135.964 530.166 135.814C530.592 135.665 531.419 135.504 532.646 135.331C533.435 135.221 534.275 135.147 535.164 135.112C536.141 135.064 536.841 135.591 537.264 136.694C536.455 139.848 535.19 142.932 533.467 145.946C531.821 148.859 530.174 151.773 528.527 154.687C526.967 157.588 525.64 160.547 524.543 163.562C523.435 166.49 523.102 169.532 523.546 172.688C523.897 172.639 524.429 172.609 525.143 172.598C525.944 172.575 526.789 172.545 527.678 172.51C528.568 172.474 529.369 172.451 530.083 172.44C530.884 172.417 531.454 172.337 531.793 172.2C532.306 172.038 533.158 171.74 534.349 171.304C535.615 170.768 536.925 170.227 538.278 169.679C539.72 169.119 541.073 168.571 542.339 168.035C543.605 167.5 544.489 167.107 544.99 166.858C545.015 167.033 545.058 167.34 545.119 167.779C545.256 168.117 545.337 168.374 545.362 168.549C545.608 170.303 544.979 171.867 543.473 173.241C542.055 174.602 540.299 175.788 538.206 176.797C536.188 177.707 534.057 178.453 531.815 179.037C529.647 179.52 527.95 179.848 526.722 180.021C525.407 180.205 524.03 180.265 522.59 180.199C521.225 180.033 519.968 179.673 518.817 179.12C517.666 178.566 516.666 177.813 515.817 176.859C515.043 175.806 514.545 174.49 514.323 172.911ZM541.764 90.4619C542.904 90.3017 543.962 90.1976 544.939 90.1498C545.916 90.1019 546.779 90.204 547.53 90.4562C548.281 90.7083 548.925 91.1543 549.462 91.7941C549.999 92.4339 550.353 93.3676 550.526 94.5951C550.6 95.1212 550.68 95.6911 550.766 96.3049C550.852 96.9187 550.851 97.5447 550.762 98.1831C550.748 98.7215 550.597 99.2346 550.308 99.7223C550.006 100.122 549.461 100.378 548.672 100.489C547.444 100.661 546.374 100.364 545.462 99.5986C544.637 98.8204 543.97 97.886 543.459 96.7954C542.935 95.6172 542.544 94.4205 542.284 93.2053C542.023 91.9901 541.85 91.0756 541.764 90.4619ZM548.493 170.791C548.383 170.002 548.296 169.389 548.235 168.95C548.173 168.512 548.161 168.111 548.2 167.748C548.314 167.285 548.471 166.816 548.673 166.34C548.874 165.865 549.145 165.246 549.484 164.483C550.013 163.157 551.027 160.824 552.524 157.484C554.022 154.144 555.627 150.61 557.338 146.882C559.049 143.155 560.654 139.621 562.152 136.281C563.737 132.929 564.838 130.584 565.455 129.245C565.53 129.145 565.743 129.071 566.094 129.021C566.532 128.96 566.839 128.917 567.014 128.892C567.19 128.867 567.497 128.824 567.935 128.763C568.373 128.701 568.643 128.708 568.743 128.783C568.843 128.859 569.049 129.053 569.361 129.367C569.761 129.668 570.167 130.014 570.58 130.403C571.067 130.692 571.467 130.993 571.78 131.307C572.18 131.608 572.467 131.747 572.643 131.722C573.432 131.611 574.228 131.231 575.031 130.582C575.833 129.933 576.63 129.239 577.421 128.502C578.287 127.665 579.165 126.916 580.055 126.254C580.946 125.593 581.917 125.188 582.969 125.04C584.109 124.88 585.198 124.995 586.237 125.386C587.275 125.776 588.201 126.317 589.013 127.007C589.825 127.698 590.475 128.501 590.961 129.416C591.535 130.319 591.89 131.252 592.025 132.217C592.309 134.234 592.273 136.206 591.918 138.133C591.65 140.048 591.295 141.976 590.853 143.916C590.398 145.768 589.993 147.658 589.638 149.585C589.358 151.413 589.354 153.291 589.625 155.22C589.896 157.149 590.313 158.521 590.874 159.336C591.423 160.064 592.706 160.286 594.723 160.002C597.09 159.67 599.277 159.005 601.283 158.008C603.376 156.998 605.563 156.333 607.842 156.013C608.138 158.117 607.727 159.963 606.609 161.551C605.579 163.126 604.161 164.488 602.355 165.636C600.624 166.684 598.688 167.537 596.545 168.196C594.478 168.755 592.567 169.157 590.814 169.404C587.482 169.872 584.897 169.296 583.06 167.677C581.299 165.957 580.196 163.519 579.753 160.363C579.457 158.259 579.53 156.237 579.973 154.297C580.503 152.344 581.084 150.43 581.714 148.553C582.432 146.664 583.062 144.787 583.605 142.923C584.148 141.058 584.277 139.118 583.994 137.101C583.92 136.575 583.734 135.886 583.435 135.034C583.137 134.181 582.505 133.823 581.54 133.959C578.647 134.365 576.146 135.656 574.037 137.83C572.017 139.991 570.239 142.611 568.704 145.687C567.257 148.752 565.973 152.017 564.85 155.483C563.816 158.937 562.794 162.165 561.785 165.168C560.865 168.159 559.92 170.661 558.951 172.675C557.982 174.688 556.84 175.788 555.525 175.973C553.684 176.231 552.113 175.871 550.813 174.891C549.513 173.912 548.74 172.545 548.493 170.791ZM603.56 156.078C603.202 153.536 603.327 150.925 603.934 148.247C604.542 145.568 605.33 142.909 606.3 140.27C607.258 137.542 608.222 134.858 609.192 132.218C610.25 129.566 610.964 127.007 611.332 124.541C609.802 125.74 608.435 126.513 607.232 126.861C606.105 127.109 604.708 127.35 603.042 127.584C602.867 127.609 602.297 127.689 601.332 127.824C600.443 127.86 599.867 127.896 599.604 127.933C599.859 125.93 600.583 124.085 601.777 122.397C602.958 120.622 604.351 119.085 605.957 117.786C607.638 116.387 609.394 115.202 611.224 114.229C613.13 113.157 614.841 112.29 616.358 111.63C618.409 107.14 619.978 102.717 621.065 98.3616C622.139 93.9188 623.232 89.6075 624.343 85.4278C625.53 81.1481 627.011 77.0506 628.785 73.1353C630.635 69.12 633.317 65.3008 636.831 61.6774L638.191 66.5828L627.167 107.429C628.095 107.03 629.241 106.601 630.607 106.14C631.973 105.68 633.339 105.22 634.705 104.76C636.159 104.287 637.531 103.871 638.821 103.511C640.187 103.051 641.334 102.621 642.261 102.223C642.349 102.21 642.612 102.173 643.051 102.112C643.477 101.962 643.821 101.869 644.084 101.832C645.312 101.66 646.351 101.737 647.202 102.065C648.052 102.392 648.846 103.264 649.581 104.681C643.865 107.272 638.732 109.872 634.18 112.478C629.629 115.085 625.778 118.219 622.627 121.881C619.551 125.443 617.212 129.795 615.61 134.938C614.083 139.98 613.405 146.29 613.576 153.866C613.798 155.444 614.089 156.878 614.449 158.169C614.809 159.46 616.016 160.095 618.07 160.074C620.086 159.791 621.916 159.131 623.559 158.096C625.201 157.06 626.794 155.987 628.337 154.876C629.867 153.677 631.41 152.567 632.965 151.543C634.608 150.508 636.437 149.848 638.454 149.565C638.75 151.669 638.1 153.727 636.505 155.74C634.91 157.752 632.89 159.601 630.445 161.286C628.087 162.958 625.598 164.336 622.979 165.42C620.359 166.503 618.172 167.168 616.419 167.415C614.665 167.661 613.038 167.532 611.536 167.028C610.035 166.524 608.722 165.769 607.597 164.765C606.548 163.661 605.649 162.356 604.901 160.852C604.241 159.335 603.794 157.744 603.56 156.078ZM668.374 149.651C668.005 147.021 668.192 144.536 668.936 142.196C669.755 139.756 670.681 137.436 671.713 135.234C672.745 133.033 673.645 130.85 674.414 128.685C675.27 126.508 675.538 124.28 675.218 122C675.144 121.474 675.014 120.867 674.827 120.178C674.716 119.388 674.524 118.655 674.25 117.979C674.064 117.29 673.721 116.757 673.221 116.38C672.796 115.903 672.277 115.708 671.663 115.794C671.575 115.806 671.406 115.875 671.155 115.999C670.98 116.024 670.898 116.08 670.911 116.168C669.917 118.006 668.692 120.101 667.234 122.452C665.851 124.703 664.337 126.972 662.692 129.26C661.046 131.547 659.432 133.741 657.85 135.841C656.267 137.941 654.817 139.71 653.499 141.147C652.582 142.259 651.321 143.778 649.713 145.702C648.194 147.615 646.631 149.533 645.023 151.458C643.492 153.283 642.111 154.907 640.88 156.332C639.738 157.744 639.078 158.463 638.903 158.488L632.132 154.208C632.921 154.098 633.686 153.811 634.426 153.35C635.078 152.9 635.724 152.407 636.364 151.87C641.132 147.624 645.299 142.925 648.867 137.774C652.523 132.611 656.041 127.109 659.423 121.269C659.561 120.982 659.895 120.175 660.424 118.849C661.028 117.423 661.658 115.859 662.313 114.157C662.956 112.368 663.604 110.623 664.259 108.922C664.902 107.132 665.375 105.725 665.678 104.699C666.044 103.485 666.221 102.521 666.21 101.807C666.287 101.081 666.345 100.537 666.383 100.174C666.497 99.7106 666.717 99.3668 667.043 99.1421C667.369 98.9175 668.102 98.7251 669.242 98.5649C669.417 98.5402 669.818 98.5286 670.444 98.53C671.157 98.5191 671.608 98.5452 671.796 98.6082C673.268 100.815 674.573 102.778 675.708 104.496C676.844 106.214 677.835 107.863 678.683 109.443C679.519 110.935 680.185 112.495 680.682 114.124C681.267 115.741 681.701 117.557 681.985 119.574C681.252 122.628 680.399 125.787 679.428 129.053C678.444 132.232 677.661 135.248 677.078 138.101C676.496 140.955 676.227 143.496 676.272 145.725C676.405 147.942 677.133 149.628 678.458 150.783C679.858 151.838 681.967 152.212 684.785 151.905C687.691 151.586 691.663 150.268 696.702 147.95C698.204 148.455 698.458 149.313 697.466 150.525C696.462 151.65 694.838 152.817 692.594 154.026C690.437 155.224 687.999 156.326 685.28 157.334C682.636 158.242 680.375 158.694 678.496 158.69C676.83 158.924 675.391 158.858 674.177 158.492C673.038 158.027 672.051 157.361 671.214 156.495C670.464 155.617 669.828 154.588 669.305 153.41C668.869 152.22 668.559 150.967 668.374 149.651ZM691.261 145.496C691.212 145.145 691.113 144.444 690.965 143.392C690.893 142.24 690.832 141.488 690.782 141.138C692.689 134.343 695.452 127.919 699.072 121.867C702.692 115.814 706.968 110.296 711.9 105.311C712.076 105.286 712.332 105.205 712.671 105.068C713.085 104.831 713.379 104.701 713.555 104.676C715.922 104.343 717.925 104.598 719.563 105.441C721.277 106.184 722.689 107.326 723.8 108.869C724.987 110.312 725.897 112.017 726.531 113.984C727.153 115.864 727.593 117.724 727.852 119.565C728.332 122.985 728.049 126.691 727 130.683C725.939 134.587 724.272 138.309 721.997 141.847C719.798 145.285 717.131 148.253 713.995 150.751C710.846 153.16 707.431 154.624 703.748 155.141C700.066 155.659 697.168 155.082 695.056 153.412C693.019 151.642 691.754 149.003 691.261 145.496ZM701.298 142.476C701.433 143.441 701.92 144.043 702.759 144.283C703.597 144.522 704.411 144.587 705.2 144.476C707.392 144.168 709.416 143.302 711.273 141.879C713.204 140.356 714.836 138.606 716.168 136.631C717.575 134.556 718.607 132.354 719.263 130.027C719.92 127.699 720.106 125.527 719.823 123.51C719.687 122.546 719.452 121.506 719.116 120.391C718.856 119.176 718.445 118.16 717.883 117.345C717.309 116.442 716.503 115.796 715.465 115.405C714.514 115.002 713.23 115.093 711.614 115.678C710.423 116.114 709.181 117.451 707.886 119.689C706.591 121.928 705.389 124.511 704.281 127.438C703.247 130.266 702.44 133.106 701.857 135.96C701.262 138.726 701.076 140.898 701.298 142.476ZM735.306 137.294C734.69 132.91 735.313 128.441 737.177 123.888C739.128 119.322 741.805 115.146 745.207 111.359C748.609 107.573 752.498 104.389 756.874 101.807C761.237 99.1369 765.523 97.5063 769.732 96.9148C771.398 96.6807 773.019 96.7657 774.596 97.17C776.173 97.5743 777.794 97.6594 779.46 97.4252L780.249 97.3143C780.552 96.2882 781.145 94.4614 782.027 91.8339C782.998 89.194 783.993 86.4164 785.014 83.5012C786.123 80.5736 787.168 77.8337 788.151 75.2815C789.121 72.6417 789.845 70.7963 790.323 69.7456C791.053 67.9441 792.079 65.6988 793.4 63.0097C794.709 60.2328 795.986 57.5498 797.231 54.9606C798.564 52.3591 799.728 50.1392 800.721 48.3007C801.714 46.4623 802.299 45.5308 802.474 45.5061L808.324 49.9145C808.349 50.0899 808.109 50.9283 807.605 52.4298C807.188 53.9189 806.614 55.8772 805.882 58.3048C805.138 60.6447 804.256 63.2722 803.235 66.1875C802.302 69.0904 801.325 71.9995 800.304 74.9147C799.283 77.8299 798.293 80.6513 797.336 83.3789C796.453 86.0065 795.647 88.221 794.916 90.0224C792.777 94.5254 790.607 99.1222 788.405 103.813C786.278 108.403 784.641 112.657 783.493 116.574C782.42 120.391 782.074 123.658 782.456 126.376C782.926 129.082 784.681 130.757 787.723 131.403C792.848 129.699 796.738 128.75 799.393 128.556C802.048 128.361 803.738 128.616 804.463 129.318C805.263 129.921 805.298 130.81 804.569 131.986C803.828 133.074 802.548 134.148 800.73 135.208C799 136.256 796.926 137.084 794.508 137.692C792.09 138.3 789.598 138.382 787.032 137.938C784.466 137.494 782.026 136.361 779.714 134.54C777.402 132.719 775.442 129.91 773.836 126.112L755.834 145.943C755.834 145.943 755.496 146.08 754.819 146.354C754.23 146.616 753.466 146.902 752.526 147.213C751.674 147.512 750.778 147.816 749.838 148.127C748.898 148.438 748.127 148.681 747.526 148.855L746.737 148.965C744.72 149.249 743.005 149.132 741.591 148.616C740.253 147.999 739.153 147.17 738.291 146.129C737.417 145 736.738 143.665 736.253 142.124C735.856 140.57 735.54 138.96 735.306 137.294ZM743.651 134.646C743.725 135.172 743.768 135.792 743.779 136.506C743.877 137.207 744.013 137.859 744.187 138.46C744.437 138.962 744.767 139.407 745.18 139.796C745.68 140.173 746.324 140.306 747.113 140.195C748.253 140.035 749.557 139.449 751.024 138.438C752.567 137.327 754.047 136.091 755.465 134.729C756.883 133.368 758.17 132.024 759.325 130.7C760.568 129.363 761.459 128.388 761.999 127.776C762.526 127.076 763.512 125.82 764.956 124.007C766.388 122.107 767.851 120.113 769.346 118.026C770.929 115.925 772.398 113.975 773.754 112.175C775.111 110.375 776.047 109.081 776.562 108.294L776.506 107.899C776.482 107.724 776.469 107.636 776.469 107.636C776.545 107.536 776.576 107.442 776.564 107.355C776.453 106.566 776.11 106.033 775.535 105.756C775.035 105.379 774.428 105.196 773.714 105.207C773.076 105.118 772.412 105.166 771.723 105.353C771.021 105.451 770.451 105.531 770.013 105.593C766.856 106.037 763.617 107.162 760.295 108.971C756.972 110.779 753.981 113.032 751.32 115.731C748.735 118.329 746.693 121.299 745.195 124.639C743.685 127.891 743.171 131.227 743.651 134.646ZM805.391 134.016C805.206 132.701 805.342 130.804 805.798 128.326C806.243 125.76 806.881 122.988 807.714 120.01C808.635 117.019 809.681 113.966 810.853 110.851C812.112 107.723 813.409 104.859 814.742 102.257C816.075 99.6559 817.382 97.5051 818.663 95.805C819.944 94.105 821.155 93.1749 822.295 93.0147C824.75 92.6697 826.143 93.6808 826.476 96.0482C826.624 97.1003 826.528 98.0079 826.188 98.771C825.936 99.5217 825.59 100.241 825.15 100.929C824.711 101.616 824.227 102.31 823.699 103.01C823.16 103.623 822.726 104.354 822.398 105.205C821.794 106.631 821.082 108.564 820.263 111.004C819.443 113.444 818.618 115.84 817.786 118.192C817.03 120.444 816.374 122.459 815.819 124.235C815.264 126.012 814.999 126.988 815.023 127.164L815.264 128.873C818.597 127.779 821.682 125.87 824.518 123.147C827.341 120.336 829.934 117.155 832.296 113.604C834.746 110.041 837.002 106.371 839.064 102.594C841.202 98.7174 843.207 95.1721 845.08 91.9583C846.941 88.6567 848.744 85.8998 850.49 83.6874C852.235 81.475 853.985 80.2456 855.738 79.9992C856.194 83.2433 855.949 86.273 855.004 89.0883C854.058 91.9035 852.975 94.6934 851.754 97.4579C850.621 100.21 849.588 103.038 848.655 105.941C847.709 108.756 847.471 111.829 847.939 115.161C848.136 116.564 849.148 117.718 850.974 118.624C852.875 119.43 854.977 120.073 857.28 120.554C859.659 120.935 861.931 121.197 864.097 121.34C866.263 121.482 867.746 121.542 868.548 121.519L869.028 124.938C867.024 125.31 864.531 125.705 861.55 126.124C858.557 126.455 855.526 126.523 852.459 126.328C849.391 126.134 846.532 125.507 843.879 124.449C841.303 123.292 839.423 121.365 838.239 118.67C836.169 120.481 834.223 122.543 832.402 124.855C830.582 127.168 828.654 129.361 826.621 131.435C824.676 133.497 822.562 135.314 820.279 136.886C817.997 138.459 815.409 139.448 812.515 139.855C810.762 140.101 809.166 139.566 807.729 138.248C806.38 136.917 805.601 135.507 805.391 134.016ZM894.45 79.6551C892.47 80.2015 890.325 81.7994 888.015 84.4488C885.693 87.0105 883.532 90.0859 881.533 93.6751C879.61 97.1643 878.08 100.911 876.944 104.915C875.795 108.832 875.443 112.369 875.886 115.525C876.244 118.068 877.154 119.773 878.617 120.64C880.068 121.42 882.021 121.637 884.476 121.292C887.106 120.922 889.606 120.258 891.975 119.299C894.419 118.241 896.819 117.188 899.175 116.142C901.607 114.995 904.008 113.942 906.376 112.984C908.821 111.925 911.358 111.211 913.988 110.841C914.161 112.068 914.133 113.145 913.906 114.071C913.666 114.91 913.263 115.861 912.697 116.924C908.446 119.756 904.038 122.432 899.475 124.951C894.899 127.383 889.98 128.968 884.72 129.707C883.141 129.929 881.439 129.9 879.611 129.621C877.771 129.253 876.032 128.648 874.394 127.806C872.755 126.963 871.305 125.87 870.043 124.528C868.869 123.173 868.153 121.574 867.894 119.733C867.34 115.788 867.374 111.893 867.996 108.051C868.606 104.12 869.685 100.347 871.234 96.7321C872.782 93.1168 874.762 89.7091 877.173 86.5091C879.672 83.2966 882.44 80.4042 885.476 77.8316L885.458 77.7001C886.662 76.7261 888.048 75.7713 889.615 74.8358C891.258 73.8002 892.818 73.1338 894.296 72.8367C895.762 72.4518 897.039 72.63 898.127 73.3713C899.29 74.0125 900.032 75.473 900.352 77.7527C900.5 78.8048 900.609 80.22 900.68 81.9983C900.739 83.6888 900.423 84.9403 899.733 85.7526C899.093 86.2896 898.228 86.8136 897.137 87.3245C896.636 87.5738 896.128 87.7792 895.614 87.9408L894.45 79.6551ZM912.632 112.641C912.274 110.098 912.399 107.488 913.006 104.81C913.614 102.131 914.402 99.4722 915.372 96.8323C916.33 94.1047 917.294 91.421 918.264 88.7811C919.322 86.1289 920.035 83.5699 920.404 81.1039C918.874 82.3025 917.507 83.0758 916.304 83.4237C915.177 83.6715 913.78 83.9125 912.114 84.1467C911.939 84.1713 911.369 84.2514 910.404 84.3869C909.515 84.4225 908.939 84.4588 908.676 84.4957C908.931 82.4928 909.655 80.6475 910.849 78.9598C912.03 77.1844 913.423 75.6474 915.029 74.3488C916.71 72.9502 918.466 71.7646 920.296 70.792C922.202 69.7195 923.913 68.8531 925.43 68.1929C927.481 63.7023 929.05 59.2794 930.137 54.9243C931.211 50.4816 932.304 46.1703 933.415 41.9906C934.602 37.7109 936.083 33.6134 937.857 29.6981C939.707 25.6828 942.389 21.8635 945.903 18.2402L947.263 23.1455L936.239 63.9914C937.167 63.5928 938.313 63.1634 939.679 62.7032C941.045 62.243 942.411 61.7828 943.777 61.3226C945.231 60.8501 946.603 60.4337 947.893 60.0735C949.259 59.6133 950.406 59.1839 951.333 58.7853C951.421 58.773 951.684 58.736 952.123 58.6744C952.549 58.5251 952.893 58.432 953.156 58.395C954.384 58.2225 955.423 58.3 956.274 58.6275C957.124 58.955 957.917 59.8271 958.653 61.2437C952.937 63.8352 947.804 66.4343 943.252 69.041C938.701 71.6477 934.85 74.782 931.699 78.4437C928.623 82.0054 926.284 86.3576 924.682 91.5004C923.155 96.5432 922.477 102.853 922.648 110.429C922.87 112.007 923.161 113.441 923.521 114.732C923.881 116.022 925.088 116.657 927.142 116.637C929.158 116.354 930.988 115.694 932.631 114.659C934.273 113.623 935.866 112.55 937.409 111.439C938.939 110.24 940.482 109.129 942.037 108.106C943.679 107.07 945.509 106.411 947.526 106.128C947.822 108.232 947.172 110.29 945.577 112.303C943.982 114.315 941.962 116.164 939.517 117.848C937.159 119.521 934.67 120.899 932.05 121.982C929.431 123.066 927.244 123.731 925.491 123.977C923.737 124.224 922.11 124.095 920.608 123.591C919.107 123.086 917.794 122.332 916.669 121.328C915.62 120.223 914.721 118.919 913.973 117.415C913.313 115.898 912.866 114.307 912.632 112.641ZM947.813 111.988C947.64 110.761 947.624 109.69 947.764 108.776C947.891 107.775 948.201 106.48 948.693 104.891C949.184 103.927 950.045 102.108 951.279 99.4307C952.6 96.7415 953.946 93.9147 955.317 90.9501C956.777 87.9733 958.129 85.1903 959.375 82.6011C960.696 79.9119 961.595 78.042 962.073 76.9912C962.702 75.7405 963.23 75.0405 963.656 74.8912C964.082 74.7419 964.909 74.581 966.136 74.4085C966.925 74.2976 967.764 74.2243 968.654 74.1888C969.63 74.1409 970.33 74.6684 970.754 75.7713C969.945 78.9249 968.68 82.0087 966.957 85.0225C965.31 87.9363 963.663 90.8501 962.016 93.764C960.457 96.6655 959.129 99.6238 958.033 102.639C956.925 105.567 956.592 108.609 957.036 111.765C957.386 111.716 957.919 111.686 958.632 111.675C959.434 111.652 960.279 111.622 961.168 111.587C962.057 111.551 962.859 111.528 963.573 111.517C964.374 111.494 964.944 111.414 965.282 111.277C965.796 111.115 966.648 110.817 967.839 110.381C969.105 109.845 970.415 109.304 971.768 108.756C973.209 108.196 974.563 107.648 975.829 107.112C977.095 106.577 977.978 106.184 978.48 105.935C978.505 106.11 978.548 106.417 978.609 106.856C978.746 107.194 978.827 107.451 978.852 107.626C979.098 109.38 978.469 110.944 976.963 112.318C975.545 113.679 973.789 114.865 971.696 115.874C969.678 116.784 967.547 117.53 965.304 118.114C963.137 118.597 961.44 118.925 960.212 119.098C958.897 119.282 957.519 119.342 956.08 119.276C954.715 119.11 953.457 118.75 952.307 118.197C951.156 117.643 950.156 116.89 949.307 115.936C948.533 114.883 948.035 113.567 947.813 111.988ZM975.254 29.5388C976.394 29.3786 977.452 29.2746 978.429 29.2267C979.405 29.1789 980.269 29.281 981.02 29.5331C981.771 29.7853 982.415 30.2313 982.952 30.8711C983.489 31.5109 983.843 32.4446 984.016 33.6721C984.09 34.1982 984.17 34.7681 984.256 35.3819C984.342 35.9956 984.341 36.6217 984.252 37.2601C984.238 37.7985 984.087 38.3116 983.798 38.7993C983.496 39.1993 982.951 39.4547 982.162 39.5656C980.934 39.7381 979.864 39.4415 978.952 38.6756C978.127 37.8973 977.459 36.963 976.949 35.8724C976.425 34.6942 976.034 33.4975 975.773 32.2823C975.513 31.0671 975.34 30.1526 975.254 29.5388ZM980.342 104.869C980.292 104.518 980.194 103.816 980.046 102.764C979.974 101.612 979.913 100.861 979.863 100.51C981.77 93.7149 984.533 87.2913 988.153 81.239C991.773 75.1867 996.049 69.6681 1000.98 64.6831C1001.16 64.6585 1001.41 64.5776 1001.75 64.4407C1002.17 64.2037 1002.46 64.0729 1002.64 64.0482C1005 63.7155 1007.01 63.9705 1008.64 64.8132C1010.36 65.5559 1011.77 66.6985 1012.88 68.2412C1014.07 69.6839 1014.98 71.389 1015.61 73.3563C1016.23 75.236 1016.67 77.0964 1016.93 78.9377C1017.41 82.3572 1017.13 86.063 1016.08 90.0551C1015.02 93.9594 1013.35 97.6809 1011.08 101.219C1008.88 104.658 1006.21 107.626 1003.08 110.123C999.927 112.532 996.512 113.996 992.829 114.514C989.147 115.031 986.249 114.455 984.137 112.785C982.1 111.014 980.835 108.376 980.342 104.869ZM990.379 101.849C990.514 102.813 991.001 103.415 991.839 103.655C992.678 103.895 993.492 103.959 994.281 103.848C996.473 103.54 998.497 102.675 1000.35 101.251C1002.29 99.7281 1003.92 97.9787 1005.25 96.0033C1006.66 93.9279 1007.69 91.7264 1008.34 89.3989C1009 87.0714 1009.19 84.8993 1008.9 82.8826C1008.77 81.9181 1008.53 80.8783 1008.2 79.7631C1007.94 78.5479 1007.53 77.5327 1006.96 76.7175C1006.39 75.8147 1005.58 75.168 1004.55 74.7774C1003.59 74.3746 1002.31 74.4656 1000.69 75.0504C999.504 75.486 998.261 76.823 996.967 79.0614C995.672 81.2999 994.47 83.8829 993.362 86.8104C992.328 89.638 991.52 92.4786 990.938 95.3322C990.343 98.0982 990.157 100.27 990.379 101.849ZM1027.09 103.528C1026.98 102.739 1026.9 102.126 1026.84 101.687C1026.77 101.249 1026.76 100.848 1026.8 100.485C1026.91 100.022 1027.07 99.5527 1027.27 99.0773C1027.48 98.602 1027.75 97.9828 1028.09 97.2197C1028.61 95.8936 1029.63 93.5606 1031.13 90.2207C1032.62 86.8808 1034.23 83.3471 1035.94 79.6195C1037.65 75.8919 1039.26 72.3582 1040.75 69.0183C1042.34 65.666 1043.44 63.3207 1044.06 61.9823C1044.13 61.8823 1044.34 61.8077 1044.69 61.7584C1045.13 61.6968 1045.44 61.6536 1045.62 61.629C1045.79 61.6043 1046.1 61.5612 1046.54 61.4996C1046.97 61.438 1047.24 61.4448 1047.34 61.5202C1047.44 61.5956 1047.65 61.7901 1047.96 62.1039C1048.36 62.4053 1048.77 62.7506 1049.18 63.1397C1049.67 63.4288 1050.07 63.7302 1050.38 64.044C1050.78 64.3454 1051.07 64.4838 1051.24 64.4591C1052.03 64.3482 1052.83 63.9681 1053.63 63.3188C1054.43 62.6695 1055.23 61.9764 1056.02 61.2394C1056.89 60.4024 1057.77 59.6531 1058.66 58.9915C1059.55 58.3298 1060.52 57.9251 1061.57 57.7772C1062.71 57.617 1063.8 57.7322 1064.84 58.1227C1065.88 58.5133 1066.8 59.0538 1067.61 59.7443C1068.43 60.4349 1069.08 61.2377 1069.56 62.1529C1070.14 63.0558 1070.49 63.9895 1070.63 64.9539C1070.91 66.9706 1070.87 68.9427 1070.52 70.8702C1070.25 72.7854 1069.9 74.713 1069.45 76.6528C1069 78.505 1068.59 80.3949 1068.24 82.3224C1067.96 84.1499 1067.96 86.0282 1068.23 87.9571C1068.5 89.8861 1068.91 91.2582 1069.48 92.0734C1070.02 92.8009 1071.31 93.0229 1073.32 92.7395C1075.69 92.4068 1077.88 91.7418 1079.88 90.7446C1081.98 89.7351 1084.16 89.0702 1086.44 88.7498C1086.74 90.8541 1086.33 92.7001 1085.21 94.2879C1084.18 95.8633 1082.76 97.2249 1080.96 98.3728C1079.23 99.4207 1077.29 100.274 1075.15 100.933C1073.08 101.492 1071.17 101.894 1069.41 102.141C1066.08 102.609 1063.5 102.033 1061.66 100.414C1059.9 98.6944 1058.8 96.2564 1058.35 93.0999C1058.06 90.9956 1058.13 88.9735 1058.57 87.0337C1059.1 85.0815 1059.68 83.167 1060.32 81.2901C1061.03 79.401 1061.66 77.5242 1062.21 75.6597C1062.75 73.7952 1062.88 71.8546 1062.6 69.838C1062.52 69.3119 1062.33 68.6228 1062.04 67.7706C1061.74 66.9184 1061.11 66.5601 1060.14 66.6957C1057.25 67.1023 1054.75 68.3927 1052.64 70.5666C1050.62 72.7283 1048.84 75.3476 1047.31 78.4244C1045.86 81.489 1044.57 84.7542 1043.45 88.2202C1042.42 91.6738 1041.4 94.9021 1040.39 97.905C1039.47 100.896 1038.52 103.398 1037.55 105.412C1036.58 107.425 1035.44 108.525 1034.13 108.71C1032.29 108.968 1030.71 108.608 1029.41 107.628C1028.11 106.649 1027.34 105.282 1027.09 103.528Z" fill="white"/>
</g>
<defs>
<filter id="filter0_d_6_5" x="0.0888824" y="0.236877" width="1104.9" height="350.386" filterUnits="userSpaceOnUse" color-interpolation-filters="sRGB">
<feFlood flood-opacity="0" result="BackgroundImageFix"/>
<feColorMatrix in="SourceAlpha" type="matrix" values="0 0 0 0 0 0 0 0 0 0 0 0 0 0 0 0 0 0 127 0" result="hardAlpha"/>
<feOffset dy="4"/>
<feGaussianBlur stdDeviation="2"/>
<feComposite in2="hardAlpha" operator="out"/>
<feColorMatrix type="matrix" values="0 0 0 0 0 0 0 0 0 0 0 0 0 0 0 0 0 0 0.25 0"/>
<feBlend mode="normal" in2="BackgroundImageFix" result="effect1_dropShadow_6_5"/>
<feBlend mode="normal" in="SourceGraphic" in2="effect1_dropShadow_6_5" result="shape"/>
</filter>
</defs>
</svg>
