<svg width="829" height="318" viewBox="0 0 829 318" fill="none" xmlns="http://www.w3.org/2000/svg">
<g filter="url(#filter0_d_6_5)">
<path d="M103.43 200.341C103.122 198.149 102.945 195.939 102.9 193.71C102.943 191.468 102.992 189.271 103.047 187.117C103.177 184.864 103.22 182.622 103.175 180.393C103.205 178.064 103.06 175.76 102.74 173.48C99.8461 173.887 97.3657 174.37 95.2984 174.929C93.231 175.487 91.2075 176.04 89.2278 176.586C87.2481 177.133 85.1308 177.654 82.8758 178.15C80.6084 178.558 77.8403 178.902 74.5715 179.183C72.5738 182.146 70.2501 185.334 67.6003 188.746C65.0381 192.146 62.2259 195.358 59.1638 198.381C56.1016 201.404 52.8086 204.058 49.2849 206.341C45.7487 208.537 42.0517 209.906 38.1938 210.448C35.5634 210.818 32.9591 210.737 30.3808 210.205C27.8902 209.661 25.6134 208.729 23.5503 207.41C21.4872 206.09 19.7756 204.408 18.4153 202.364C17.0428 200.233 16.1655 197.808 15.7835 195.089C15.5864 193.687 15.6577 192.604 15.9975 191.841C16.4127 190.978 17.4094 190.435 18.9876 190.213C19.7767 190.102 20.5829 190.749 21.4062 192.153C22.2171 193.47 23.2342 194.981 24.4574 196.687C25.756 198.293 27.2992 199.73 29.0869 200.999C30.8623 202.18 33.1091 202.579 35.8272 202.197C39.159 201.729 42.3169 200.659 45.3009 198.988C48.3602 197.217 51.201 195.164 53.8234 192.828C56.5211 190.392 58.9687 187.768 61.1664 184.956C63.4518 182.131 65.4803 179.387 67.2519 176.724C66.6808 174.569 65.6637 173.058 64.2006 172.191C62.7376 171.323 61.1868 170.468 59.5484 169.626C57.9976 168.771 56.5291 167.547 55.1428 165.953C53.7565 164.36 52.7984 161.678 52.2686 157.908C51.5169 152.559 52.5536 148.166 55.3788 144.729C58.1917 141.205 62.4039 139.048 68.0154 138.259C69.6813 138.025 71.3281 137.973 72.9556 138.102C74.6708 138.218 76.3983 138.422 78.1382 138.714C79.8657 138.919 81.5433 139.085 83.1708 139.214C84.886 139.331 86.5766 139.272 88.2425 139.038C89.2946 138.89 90.1091 138.641 90.6859 138.292C91.3504 137.93 91.9087 137.45 92.3608 136.85C92.813 136.25 93.2843 135.468 93.7748 134.505C94.2654 133.542 94.9066 132.379 95.6986 131.016C96.1261 130.24 96.7612 129.033 97.6039 127.395C98.5219 125.657 99.5091 123.774 100.566 121.748C101.61 119.634 102.729 117.421 103.924 115.107C105.119 112.793 106.238 110.579 107.282 108.465C108.326 106.352 109.27 104.476 110.112 102.837C110.955 101.199 111.54 99.9541 111.868 99.1033C112.721 98.1787 113.53 97.5732 114.295 97.2869C115.047 96.913 115.949 96.6521 117.001 96.5042C118.053 96.3563 118.898 96.64 119.535 97.3552C120.16 97.9827 120.59 98.8164 120.825 99.8562C121.149 100.884 121.346 101.974 121.419 103.126C121.567 104.178 121.684 105.011 121.77 105.625C121.807 105.888 121.869 106.326 121.955 106.94C122.029 107.466 122.065 108.042 122.064 108.668C122.15 109.282 122.236 109.896 122.322 110.509C122.396 111.035 122.446 111.386 122.47 111.561C122.331 112.475 122.077 113.852 121.71 115.692C121.43 117.519 121.1 119.622 120.719 122.001C120.325 124.291 119.907 126.719 119.462 129.285C119.106 131.839 118.737 134.305 118.356 136.683C118.063 139.049 117.776 141.146 117.497 142.973C117.217 144.801 117.051 146.165 116.999 147.067C116.973 147.518 116.94 148.238 116.9 149.227C116.861 150.216 116.833 151.293 116.818 152.457C116.79 153.534 116.757 154.567 116.717 155.556C116.677 156.545 116.682 157.215 116.731 157.566C117.545 157.63 118.371 157.782 119.209 158.022C120.048 158.262 120.522 158.776 120.633 159.566C120.757 160.442 120.504 161.193 119.877 161.818C119.337 162.43 118.66 163.017 117.844 163.579C117.029 164.14 116.27 164.783 115.567 165.508C114.952 166.22 114.681 167.153 114.753 168.305C114.726 169.382 114.69 171.354 114.646 174.221C114.59 177.001 114.476 180.012 114.306 183.255C114.211 186.398 114.092 189.365 113.948 192.157C113.891 194.937 113.806 196.871 113.691 197.96C113.64 198.236 113.532 198.742 113.368 199.481C113.203 200.219 112.995 200.964 112.743 201.715C112.491 202.465 112.232 203.172 111.968 203.835C111.704 204.498 111.502 204.974 111.364 205.261C109.198 205.119 107.414 204.833 106.013 204.404C104.599 203.887 103.738 202.533 103.43 200.341ZM94.0962 150.152C93.044 150.299 91.6582 151.254 89.9387 153.016C88.3069 154.765 86.7121 156.778 85.1542 159.053C83.5841 161.241 82.2392 163.441 81.1198 165.655C79.988 167.781 79.4899 169.327 79.6254 170.291C80.1515 170.217 81.1598 170.076 82.6504 169.866C84.2163 169.557 85.8322 169.285 87.4982 169.051C89.2394 168.717 90.8492 168.401 92.3274 168.104C93.8933 167.794 94.9832 167.596 95.5969 167.51C95.9477 167.461 96.4614 167.299 97.1382 167.025C97.9027 166.739 98.6233 166.459 99.3001 166.185C99.9769 165.911 100.566 165.649 101.067 165.4C101.657 165.138 101.989 164.958 102.064 164.858C102.152 164.845 102.159 164.576 102.085 164.05C101.999 163.436 101.931 162.954 101.881 162.603C101.783 161.902 101.497 160.824 101.025 159.371C100.64 157.905 100.08 156.464 99.3442 155.047C98.6963 153.618 97.9039 152.433 96.9669 151.492C96.1052 150.45 95.1483 150.004 94.0962 150.152ZM57.1576 155.477C57.3301 156.705 57.9656 158.046 59.0642 159.501C60.1628 160.956 61.4683 162.292 62.9807 163.51C64.4931 164.728 66.0623 165.715 67.6884 166.47C69.3145 167.225 70.7852 167.51 72.1004 167.325C73.3279 167.153 74.6699 166.204 76.1263 164.479C77.5827 162.755 78.9207 160.823 80.1401 158.685C81.435 156.446 82.4791 154.332 83.2724 152.343C84.0658 150.354 84.4132 149.009 84.3147 148.307C84.1052 146.817 83.4251 145.795 82.2743 145.241C81.1989 144.588 79.9413 144.228 78.5015 144.162C77.137 143.996 75.7095 144.018 74.2189 144.227C72.7283 144.437 71.5008 144.609 70.5363 144.745C69.3088 144.918 67.8367 145.259 66.1201 145.768C64.4788 146.178 62.956 146.794 61.5517 147.617C60.1474 148.44 58.9993 149.496 58.1073 150.784C57.2154 152.071 56.8988 153.636 57.1576 155.477ZM95.6709 143.224C97.9202 145.233 100.063 147.435 102.098 149.832C104.134 152.228 106.088 154.68 107.961 157.189L113.751 113.457L95.6709 143.224ZM131.909 190.169C131.748 189.029 131.833 187.721 132.162 186.244C132.566 184.667 133.351 183.574 134.517 182.963C134.68 182.85 134.893 182.776 135.156 182.739C135.494 182.602 135.789 182.471 136.04 182.346C136.378 182.209 136.679 182.122 136.942 182.085L137.958 189.319C138.411 188.719 139.064 187.644 139.919 186.093C140.862 184.53 141.792 182.879 142.71 181.141C143.704 179.302 144.578 177.57 145.333 175.944C146.175 174.305 146.723 173.111 146.975 172.36L169.227 108.343C169.227 108.343 169.41 108.049 169.774 107.462C170.226 106.862 170.747 106.431 171.336 106.169C172.001 105.808 172.758 105.79 173.609 106.118C174.46 106.445 175.365 107.481 176.325 109.223L162.936 149.463L163.158 151.041C165.662 151.047 168.016 151.252 170.219 151.658C172.409 151.976 174.336 152.644 175.999 153.662C177.75 154.668 179.193 156.03 180.329 157.748C181.452 159.378 182.192 161.465 182.549 164.007C183.153 168.304 182.58 172.497 180.83 176.588C179.156 180.578 176.762 184.223 173.649 187.522C170.524 190.733 166.931 193.473 162.868 195.743C158.882 197.913 154.915 199.275 150.97 199.829C149.216 200.076 147.3 200.121 145.222 199.966C143.131 199.724 141.141 199.243 139.252 198.525C137.439 197.707 135.813 196.639 134.376 195.321C133.014 193.903 132.192 192.186 131.909 190.169ZM165.769 159.123C164.541 159.296 163.262 160.057 161.932 161.406C160.689 162.743 159.496 164.431 158.352 166.469C157.195 168.42 156.12 170.628 155.125 173.092C154.118 175.469 153.242 177.827 152.498 180.167C151.842 182.495 151.342 184.666 151 186.681C150.657 188.697 150.566 190.274 150.726 191.414C153.181 191.069 155.863 190.111 158.771 188.54C161.68 186.969 164.32 185.078 166.692 182.867C169.139 180.556 171.066 178.049 172.475 175.348C173.959 172.546 174.51 169.787 174.128 167.069C173.795 164.701 173.023 162.709 171.812 161.09C170.589 159.385 168.575 158.729 165.769 159.123ZM192.537 182.587C192.488 182.236 192.389 181.535 192.241 180.483C192.169 179.331 192.108 178.579 192.059 178.229C193.965 171.434 196.728 165.01 200.348 158.958C203.968 152.905 208.244 147.387 213.177 142.402C213.352 142.377 213.609 142.296 213.947 142.159C214.361 141.922 214.655 141.792 214.831 141.767C217.198 141.434 219.201 141.689 220.839 142.532C222.553 143.275 223.966 144.417 225.077 145.96C226.263 147.403 227.173 149.108 227.807 151.075C228.429 152.955 228.869 154.815 229.128 156.656C229.609 160.076 229.325 163.782 228.276 167.774C227.216 171.678 225.548 175.4 223.274 178.938C221.075 182.377 218.407 185.344 215.271 187.842C212.122 190.251 208.707 191.715 205.024 192.232C201.342 192.75 198.444 192.173 196.332 190.503C194.295 188.733 193.03 186.094 192.537 182.587ZM202.574 179.567C202.709 180.532 203.196 181.134 204.035 181.374C204.873 181.613 205.687 181.678 206.476 181.567C208.668 181.259 210.692 180.393 212.549 178.97C214.481 177.447 216.112 175.697 217.444 173.722C218.851 171.647 219.883 169.445 220.539 167.118C221.196 164.79 221.382 162.618 221.099 160.601C220.963 159.637 220.728 158.597 220.392 157.482C220.132 156.267 219.721 155.251 219.16 154.436C218.586 153.533 217.779 152.887 216.741 152.496C215.79 152.093 214.507 152.184 212.89 152.769C211.699 153.205 210.457 154.542 209.162 156.78C207.867 159.019 206.665 161.602 205.557 164.529C204.524 167.357 203.716 170.197 203.133 173.051C202.539 175.817 202.352 177.989 202.574 179.567ZM238.277 180.719C238.092 179.404 238.228 177.507 238.684 175.029C239.128 172.463 239.767 169.691 240.6 166.712C241.521 163.722 242.567 160.669 243.739 157.554C244.998 154.426 246.294 151.562 247.628 148.96C248.961 146.359 250.268 144.208 251.549 142.508C252.83 140.808 254.041 139.878 255.18 139.717C257.635 139.372 259.029 140.384 259.362 142.751C259.51 143.803 259.414 144.711 259.074 145.474C258.822 146.224 258.476 146.944 258.036 147.631C257.596 148.319 257.113 149.013 256.585 149.713C256.045 150.325 255.612 151.057 255.284 151.907C254.68 153.334 253.968 155.267 253.149 157.706C252.329 160.146 251.504 162.542 250.672 164.895C249.915 167.147 249.26 169.161 248.705 170.938C248.15 172.715 247.885 173.691 247.909 173.866L248.149 175.576C251.483 174.482 254.567 172.573 257.403 169.85C260.227 167.039 262.82 163.858 265.182 160.307C267.632 156.744 269.888 153.074 271.95 149.297C274.088 145.42 276.093 141.875 277.966 138.661C279.827 135.359 281.63 132.602 283.375 130.39C285.121 128.178 286.871 126.948 288.624 126.702C289.08 129.946 288.835 132.976 287.89 135.791C286.944 138.606 285.861 141.396 284.64 144.161C283.507 146.913 282.474 149.74 281.541 152.643C280.595 155.459 280.356 158.532 280.825 161.864C281.022 163.267 282.034 164.421 283.86 165.327C285.761 166.133 287.863 166.776 290.166 167.257C292.544 167.638 294.817 167.9 296.982 168.042C299.148 168.185 300.632 168.245 301.434 168.222L301.914 171.641C299.91 172.012 297.417 172.407 294.436 172.826C291.443 173.158 288.412 173.226 285.345 173.031C282.277 172.836 279.418 172.21 276.765 171.152C274.189 169.994 272.308 168.068 271.125 165.373C269.055 167.184 267.109 169.246 265.288 171.558C263.467 173.87 261.54 176.064 259.507 178.138C257.562 180.199 255.448 182.016 253.165 183.589C250.882 185.161 248.294 186.151 245.401 186.558C243.647 186.804 242.052 186.268 240.615 184.95C239.266 183.62 238.486 182.209 238.277 180.719ZM299.749 165.776C299.391 163.233 299.516 160.623 300.123 157.945C300.73 155.266 301.519 152.607 302.489 149.967C303.447 147.24 304.411 144.556 305.381 141.916C306.439 139.264 307.152 136.705 307.521 134.239C305.991 135.438 304.624 136.211 303.421 136.559C302.294 136.807 300.897 137.048 299.231 137.282C299.056 137.306 298.486 137.386 297.521 137.522C296.632 137.558 296.056 137.594 295.793 137.631C296.048 135.628 296.772 133.783 297.966 132.095C299.147 130.319 300.54 128.782 302.146 127.484C303.827 126.085 305.583 124.9 307.413 123.927C309.319 122.855 311.03 121.988 312.547 121.328C314.598 116.837 316.167 112.415 317.254 108.059C318.328 103.617 319.421 99.3054 320.532 95.1257C321.719 90.846 323.2 86.7485 324.974 82.8332C326.824 78.8179 329.506 74.9986 333.02 71.3753L334.38 76.2806L323.356 117.126C324.284 116.728 325.43 116.299 326.796 115.838C328.162 115.378 329.528 114.918 330.894 114.458C332.348 113.985 333.72 113.569 335.01 113.209C336.376 112.748 337.523 112.319 338.45 111.92C338.538 111.908 338.801 111.871 339.239 111.81C339.666 111.66 340.01 111.567 340.273 111.53C341.501 111.358 342.54 111.435 343.391 111.763C344.241 112.09 345.034 112.962 345.77 114.379C340.054 116.97 334.921 119.569 330.369 122.176C325.818 124.783 321.967 127.917 318.815 131.579C315.74 135.14 313.401 139.493 311.799 144.635C310.272 149.678 309.594 155.988 309.765 163.564C309.987 165.142 310.278 166.576 310.638 167.867C310.998 169.157 312.205 169.793 314.259 169.772C316.275 169.489 318.105 168.829 319.748 167.794C321.39 166.758 322.983 165.685 324.526 164.574C326.056 163.375 327.599 162.264 329.154 161.241C330.796 160.206 332.626 159.546 334.643 159.263C334.938 161.367 334.289 163.425 332.694 165.438C331.099 167.45 329.079 169.299 326.633 170.984C324.276 172.656 321.787 174.034 319.167 175.118C316.548 176.201 314.361 176.866 312.608 177.112C310.854 177.359 309.227 177.23 307.725 176.726C306.224 176.221 304.911 175.467 303.786 174.463C302.737 173.359 301.838 172.054 301.09 170.55C300.43 169.033 299.983 167.442 299.749 165.776ZM501.654 144.24C500.939 139.155 500.876 133.933 501.464 128.575C502.128 123.117 503.11 117.704 504.412 112.335C505.802 106.954 507.348 101.729 509.05 96.6619C510.739 91.5068 512.34 86.6771 513.853 82.1727L513.613 80.4629C512.796 81.6506 511.496 83.5322 509.712 86.1076C508.004 88.583 506.031 91.4085 503.795 94.5839C501.647 97.747 499.348 101.11 496.898 104.673C494.523 108.136 492.218 111.456 489.982 114.631C487.834 117.794 485.911 120.657 484.215 123.22C482.506 125.696 481.244 127.527 480.427 128.715C479.611 129.903 478.912 131.61 478.331 133.838C477.737 135.978 477.062 138.174 476.306 140.426C475.55 142.678 474.625 144.686 473.531 146.449C472.526 148.2 471.234 149.186 469.655 149.408C468.34 149.593 467.27 149.609 466.443 149.457C465.705 149.292 465.124 148.972 464.699 148.495C464.262 147.931 463.938 147.216 463.727 146.352C463.516 145.487 463.324 144.441 463.152 143.214C462.24 136.725 462.28 130.327 463.271 124.018C464.337 117.609 465.479 111.101 466.696 104.492L466.456 102.782C466.305 102.982 466.041 103.332 465.664 103.832C465.275 104.245 465.049 104.545 464.986 104.732C463.325 108.185 461.658 111.906 459.983 115.897C458.297 119.8 456.522 123.715 454.66 127.642C452.786 131.482 450.717 135.215 448.455 138.841C446.193 142.468 443.662 145.774 440.863 148.76C438.052 151.659 434.866 154.118 431.305 156.139C427.832 158.147 423.859 159.465 419.388 160.094C418.423 160.229 417.102 160.37 415.424 160.517C413.833 160.651 412.218 160.61 410.578 160.393C409.026 160.164 407.612 159.647 406.337 158.843C405.149 158.027 404.432 156.741 404.185 154.988C404.087 154.286 404.358 153.354 404.999 152.191C405.716 150.928 406.35 150.034 406.903 149.51C408.414 151.354 409.613 152.571 410.501 153.162C411.464 153.652 412.734 153.786 414.313 153.565C416.943 153.195 419.649 152.412 422.432 151.216C425.29 149.921 427.979 148.38 430.5 146.595C433.109 144.798 435.511 142.807 437.707 140.62C439.904 138.434 441.693 136.215 443.076 133.965C444.144 132.026 445.408 129.568 446.868 126.592C448.402 123.515 449.994 120.206 451.642 116.666C453.366 113.027 455.127 109.337 456.926 105.597C458.725 101.857 460.462 98.3046 462.135 94.9401C463.883 91.4755 465.505 88.3864 467.002 85.6726C468.498 82.9587 469.817 80.8957 470.96 79.4833C472.187 79.3108 473.139 79.4006 473.814 79.7527C474.477 80.0172 474.99 80.4817 475.351 81.1461C475.713 81.8106 475.961 82.6251 476.097 83.5896C476.233 84.554 476.374 85.5624 476.522 86.6145C477.04 90.2971 476.975 93.9721 476.328 97.6394C475.769 101.295 475.066 104.88 474.219 108.397C473.36 111.826 472.582 115.199 471.886 118.516C471.277 121.82 471.188 125.007 471.62 128.075C471.644 128.251 471.687 128.558 471.749 128.996C471.898 129.422 471.985 129.723 472.01 129.898C478.97 119.621 484.963 110.732 489.989 103.23C495.015 95.7285 499.262 89.3646 502.729 84.1384C506.273 78.8122 509.156 74.5175 511.38 71.2544C513.591 67.9036 515.375 65.3282 516.732 63.5281C518.076 61.6404 519.099 60.3342 519.802 59.6095C520.593 58.8726 521.251 58.4671 521.777 58.3932C522.654 58.2699 523.348 58.4406 523.861 58.905C524.373 59.3695 524.722 59.9463 524.909 60.6354C525.183 61.3122 525.331 62.0513 525.354 62.8528C525.465 63.6419 525.558 64.2995 525.632 64.8256C526.149 68.5081 525.978 72.3769 525.117 76.432C524.332 80.3871 523.17 84.5291 521.633 88.8582C520.171 93.0872 518.502 97.4347 516.626 101.901C514.825 106.267 513.175 110.746 511.674 115.338C510.261 119.918 509.168 124.542 508.393 129.211C507.694 133.779 507.671 138.387 508.324 143.034C508.657 145.402 508.947 147.149 509.195 148.277C509.431 149.317 509.817 150.156 510.354 150.796C510.903 151.524 511.716 152.214 512.791 152.868C513.879 153.609 515.429 154.777 517.441 156.372C515.585 157.795 513.674 158.511 511.708 158.519C509.842 158.602 508.115 158.085 506.527 156.967C505.027 155.837 503.81 154.175 502.876 151.981C501.942 149.788 501.534 147.208 501.654 144.24ZM526.762 187.384C528.927 182.431 531.598 177.898 534.776 173.785C537.965 169.76 541.267 165.899 544.682 162.2C548.183 158.489 551.654 154.872 555.093 151.349C558.532 147.825 561.633 144.126 564.397 140.25C567.248 136.363 569.568 132.192 571.356 127.738C573.132 123.197 574.07 118.103 574.17 112.456C574.146 112.28 574.065 112.023 573.928 111.685C573.866 111.247 573.823 110.94 573.799 110.764C572.115 113.415 570.035 116.434 567.561 119.822C565.174 123.198 562.5 126.435 559.538 129.533C556.663 132.62 553.552 135.292 550.203 137.551C546.855 139.81 543.471 141.18 540.051 141.66C539.174 141.783 538.028 141.9 536.613 142.009C535.273 142.019 533.915 141.897 532.538 141.643C531.161 141.39 529.935 140.936 528.86 140.282C527.785 139.629 527.155 138.645 526.97 137.329C526.809 136.189 526.87 134.393 527.151 131.939C527.432 129.486 527.895 126.738 528.541 123.697C529.186 120.655 529.957 117.552 530.853 114.386C531.75 111.22 532.771 108.305 533.916 105.64C535.062 102.976 536.225 100.756 537.406 98.9802C538.675 97.1925 539.923 96.2124 541.15 96.0399C542.378 95.8673 543.467 95.9825 544.418 96.3854C545.368 96.7882 545.93 97.6034 546.103 98.8309C546.411 101.023 545.93 103.326 544.659 105.74C543.389 108.153 542.012 110.761 540.528 113.563C539.032 116.276 537.698 119.191 536.527 122.306C535.355 125.421 535.028 128.82 535.545 132.503C541.332 131.69 546.383 129.773 550.697 126.752C554.999 123.644 558.783 120.028 562.048 115.903C565.313 111.778 568.096 107.408 570.398 102.793C572.7 98.1776 574.695 93.9185 576.381 90.0155C578.156 86.1003 579.666 82.848 580.911 80.2589C582.232 77.5697 583.463 76.145 584.602 75.9848C586.268 75.7507 587.307 76.1412 587.718 77.1564C588.204 78.0716 588.552 79.2745 588.761 80.765C588.354 83.594 587.708 86.9484 586.823 90.8281C585.925 94.6201 585.014 98.6375 584.091 102.88C583.242 107.023 582.482 111.154 581.809 115.272C581.223 119.377 580.983 123.077 581.088 126.37C581.101 126.458 581.119 126.59 581.144 126.765C581.256 126.928 581.318 127.053 581.331 127.141C582.835 126.393 584.196 125.263 585.414 123.751C586.632 122.238 587.807 120.732 588.937 119.232C590.143 117.632 591.373 116.207 592.628 114.958C593.871 113.621 595.237 112.848 596.728 112.638C596.816 112.626 597.209 113.197 597.907 114.35C598.694 115.492 598.903 116.982 598.536 118.822C597.833 119.547 596.534 120.802 594.639 122.588C592.832 124.362 590.906 126.243 588.86 128.229C586.802 130.127 584.876 132.008 583.081 133.869C581.274 135.643 580.031 136.98 579.353 137.88C578.298 139.28 577.273 141.213 576.278 143.677C575.283 146.142 574.326 148.869 573.405 151.86C572.496 154.938 571.606 158.148 570.735 161.489C569.951 164.818 569.154 168.059 568.346 171.213C567.55 174.454 566.716 177.433 565.846 180.148C565.076 182.939 564.326 185.235 563.596 187.036C563.256 187.799 562.526 189.288 561.407 191.501C560.387 193.79 559.211 196.236 557.878 198.837C556.632 201.426 555.368 203.884 554.086 206.21C552.903 208.612 551.979 210.306 551.313 211.294C551.024 211.782 550.201 212.926 548.845 214.726C547.501 216.613 545.956 218.663 544.21 220.876C542.565 223.164 540.913 225.407 539.255 227.607C537.51 229.82 536.178 231.482 535.262 232.595C534.296 233.356 532.998 234.299 531.367 235.422C529.749 236.633 528.063 237.675 526.308 238.547C524.465 239.432 522.679 240.085 520.95 240.507C519.134 240.941 517.588 240.756 516.312 239.952C515.049 239.235 514.176 237.793 513.693 235.626C513.134 233.559 513.191 230.466 513.864 226.348C514.462 222.33 515.788 217.136 517.844 210.767C519.899 204.398 522.872 196.604 526.762 187.384ZM564.085 153.304C563.91 153.328 563.609 153.415 563.183 153.565C562.857 153.789 562.613 153.958 562.45 154.07C562.299 154.27 561.947 154.632 561.395 155.157C560.843 155.682 560.209 156.263 559.494 156.899C558.867 157.524 558.239 158.149 557.612 158.773C557.072 159.386 556.689 159.842 556.463 160.142C554.254 162.241 551.794 165.09 549.081 168.69C546.38 172.378 543.591 176.391 540.714 180.729C537.937 185.143 535.228 189.726 532.587 194.479C529.959 199.319 527.651 203.89 525.663 208.193C523.599 212.596 522.013 216.574 520.903 220.128C519.793 223.682 519.336 226.473 519.531 228.502C519.727 230.531 520.726 231.597 522.529 231.702C524.332 231.806 527.196 230.554 531.121 227.946C531.887 227.034 532.992 225.671 534.436 223.859C535.805 222.146 537.162 220.346 538.506 218.459C539.95 216.646 541.231 214.946 542.349 213.359C543.479 211.858 544.151 210.915 544.365 210.527C544.717 209.852 545.283 208.789 546.063 207.338C546.842 205.887 547.685 204.249 548.591 202.422C549.497 200.596 550.434 198.676 551.403 196.663C552.371 194.649 553.259 192.691 554.064 190.79C554.97 188.964 555.725 187.337 556.329 185.911C557.021 184.473 557.493 183.378 557.745 182.628C558.337 181.114 559.018 178.962 559.789 176.171C560.659 173.456 561.423 170.621 562.081 167.668C562.751 164.802 563.302 162.042 563.733 159.388C564.165 156.735 564.282 154.707 564.085 153.304ZM598.04 121.976C597.806 120.31 597.822 118.833 598.088 117.544C598.441 116.242 599.627 115.45 601.643 115.166C601.819 115.142 602.219 115.13 602.845 115.132C603.547 115.033 604.035 115.009 604.311 115.06C604.802 119.193 605.897 122.213 607.596 124.12C609.282 125.94 612.054 126.579 615.912 126.036C619.068 125.593 622.113 124.673 625.047 123.277C627.98 121.882 630.545 120.09 632.741 117.904C635.012 115.618 636.703 113.011 637.811 110.083C639.007 107.143 639.365 103.964 638.885 100.544C638.589 98.4399 637.634 97.0541 636.02 96.3868C634.494 95.7071 632.817 95.2275 630.99 94.9479C629.162 94.6682 627.46 94.3263 625.883 93.922C624.382 93.4177 623.514 92.3326 623.28 90.6667C622.997 88.6501 623.953 86.5486 626.149 84.3623C628.345 82.176 631.011 80.1472 634.146 78.2761C637.268 76.3173 640.396 74.7154 643.529 73.4703C646.738 72.1252 649.219 71.3295 650.972 71.083C651.33 73.6257 651.012 75.5033 650.02 76.7156C649.116 77.9157 647.918 78.9335 646.426 79.769C644.934 80.6046 643.398 81.4463 641.819 82.2942C640.314 83.0421 639.147 84.2791 638.317 86.0052C639.88 86.9479 641.167 87.8399 642.18 88.6811C643.267 89.4224 644.148 90.2821 644.822 91.2603C645.496 92.2386 646.013 93.3729 646.373 94.6635C646.721 95.8664 647.018 97.3446 647.265 99.0982C647.906 103.658 647.483 107.964 645.996 112.018C644.585 115.971 642.492 119.529 639.717 122.691C636.93 125.765 633.625 128.33 629.801 130.388C625.965 132.358 621.943 133.638 617.734 134.23C615.454 134.55 613.182 134.601 610.916 134.383C608.725 134.065 606.711 133.41 604.872 132.416C603.121 131.41 601.634 130.055 600.411 128.349C599.188 126.643 598.398 124.519 598.04 121.976ZM662.655 120.808C660.696 117.686 659.583 114.534 659.314 111.353C659.034 108.084 659.31 104.961 660.143 101.982C661.052 98.9041 662.354 96.0834 664.05 93.5203C665.822 90.8572 667.774 88.5264 669.908 86.5277C672.029 84.4414 674.211 82.7935 676.455 81.584C678.787 80.3622 680.886 79.7095 682.752 79.6261C684.605 79.455 686.145 79.9093 687.369 80.989C688.594 82.0686 689.21 83.9044 689.216 86.4964C689.697 89.916 689.02 93.0511 687.185 95.9019C685.438 98.7404 683.391 101.353 681.044 103.739C678.785 106.113 676.676 108.287 674.718 110.261C672.836 112.135 671.993 113.773 672.19 115.176C672.301 115.965 672.826 116.518 673.764 116.833C674.791 117.136 675.936 117.332 677.2 117.423C678.452 117.426 679.698 117.385 680.938 117.3C682.178 117.215 683.067 117.179 683.606 117.193C691.601 114.281 697.635 112.36 701.706 111.43C705.766 110.413 708.358 110.093 709.485 110.471C710.598 110.762 710.484 111.538 709.141 112.8C707.874 113.961 705.83 115.322 703.009 116.88C700.176 118.352 696.848 119.803 693.025 121.234C689.203 122.665 685.375 123.74 681.542 124.457C677.696 125.087 674.046 125.198 670.591 124.789C667.224 124.369 664.578 123.041 662.655 120.808ZM681.457 87.587C679.703 87.8335 678.105 88.5498 676.662 89.7361C675.219 90.9224 673.945 92.3532 672.84 94.0286C671.809 95.604 670.979 97.3301 670.348 99.207C669.706 100.996 669.27 102.667 669.041 104.219C669.229 104.282 669.366 104.307 669.454 104.295L669.849 104.24C671.076 104.067 672.405 103.344 673.836 102.07C675.266 100.796 676.578 99.315 677.771 97.6273C678.952 95.8519 679.908 94.0635 680.638 92.262C681.369 90.4605 681.641 88.9022 681.457 87.587ZM705.73 109.524C705.644 108.91 705.558 107.983 705.474 106.743C705.464 105.404 705.461 104.108 705.464 102.855C705.466 101.603 705.488 100.483 705.528 99.4935C705.555 98.4167 705.638 97.7344 705.776 97.4467L722.985 46.2094C723.237 45.4586 723.759 44.4017 724.551 43.0387C725.418 41.5756 726.33 40.1064 727.285 38.631C728.315 37.0556 729.32 35.6179 730.3 34.3178C731.355 32.9178 732.227 31.8116 732.918 30.9993C733.556 31.0884 734.038 31.3336 734.362 31.7351C734.687 32.1365 734.936 32.6379 735.11 33.2394C735.272 33.7531 735.346 34.2792 735.332 34.8176C735.406 35.3437 735.468 35.7821 735.517 36.1328C735.579 36.5712 735.665 37.185 735.776 37.9741C735.887 38.7632 735.898 39.1639 735.811 39.1763C735.266 41.6668 734.302 44.6636 732.916 48.1665C731.531 51.6695 729.957 55.4224 728.195 59.4254C726.433 63.4283 724.608 67.6189 722.72 71.9972C720.907 76.2756 719.269 80.5292 717.807 84.7582C716.421 88.8873 715.322 92.8416 714.512 96.6213C713.79 100.389 713.638 103.763 714.057 106.744C714.279 108.322 714.896 109.532 715.908 110.373C716.996 111.115 718.115 111.762 719.266 112.316C720.417 112.869 721.48 113.435 722.455 114.013C723.518 114.579 724.136 115.476 724.309 116.703C724.42 117.492 724.155 118.156 723.515 118.693C722.863 119.142 722.055 119.434 721.09 119.57C717.408 120.087 714.066 119.529 711.064 117.894C708.05 116.172 706.272 113.382 705.73 109.524ZM716.052 162.927C720.962 162.237 725.237 160.206 728.876 156.833C732.515 153.461 735.66 149.442 738.313 144.778C740.978 140.201 743.162 135.378 744.863 130.311C746.578 125.331 747.915 120.852 748.876 116.872C749.268 115.207 749.755 112.948 750.338 110.095C750.908 107.153 751.446 104.306 751.953 101.552C752.536 98.6986 752.986 96.1765 753.304 93.986C753.71 91.7831 753.888 90.5062 753.839 90.1555L753.765 89.6294C752.102 88.6114 750.55 88.3825 749.108 88.9427C747.655 89.4152 746.27 90.0569 744.953 90.8679C743.712 91.5788 742.534 92.102 741.418 92.4376C740.291 92.6855 739.172 92.038 738.061 90.4954C737.851 89.0048 738.079 87.7657 738.745 86.778C739.411 85.7903 740.321 84.9471 741.474 84.2485C742.628 83.5499 743.932 82.9644 745.385 82.4918C746.839 82.0193 748.242 81.5091 749.596 80.9612C750.95 80.4133 752.153 79.7524 753.207 78.9785C754.26 78.2045 754.97 77.2106 755.336 75.9969L764.576 43.4489C765.371 40.8336 766.628 38.3321 768.349 35.9444C770.058 33.469 772.079 31.3073 774.412 29.4594C776.745 27.6115 779.253 26.052 781.936 24.7808C784.618 23.5097 787.275 22.6893 789.905 22.3196C793.675 21.7898 796.404 22.4346 798.09 24.2541C799.776 26.0735 800.903 28.9999 801.47 33.0332C801.581 33.8223 801.415 34.8738 800.974 36.1875C800.621 37.489 800.085 38.7713 799.369 40.0343C798.652 41.2974 797.823 42.3974 796.882 43.3344C795.941 44.2714 794.988 44.8077 794.023 44.9432C793.863 43.8034 793.935 42.7204 794.237 41.6943C794.528 40.5805 794.825 39.5106 795.128 38.4845C795.518 37.4461 795.865 36.4138 796.168 35.3878C796.458 34.274 796.517 33.1033 796.345 31.8758C796.147 30.4729 795.85 29.3077 795.451 28.3802C795.052 27.4527 793.889 27.1245 791.96 27.3956C789.417 27.753 786.923 28.7741 784.477 30.459C782.107 32.0438 779.848 34.1048 777.701 36.6418C775.63 39.0788 773.695 41.8543 771.898 44.9681C770.175 47.9819 768.728 51.0465 767.557 54.1617C766.473 57.2646 765.652 60.3306 765.094 63.3596C764.612 66.2886 764.531 68.8929 764.851 71.1726C764.876 71.3479 764.919 71.6548 764.98 72.0932C765.117 72.4316 765.198 72.6885 765.223 72.8638C766.815 72.1036 768.614 71.2249 770.619 70.2278C772.713 69.2183 774.862 68.2903 777.068 67.4438C779.349 66.4973 781.605 65.6885 783.835 65.0174C786.141 64.2463 788.346 63.7129 790.45 63.4172C790.648 64.82 790.125 66.19 788.882 67.527C787.639 68.864 785.99 70.1687 783.933 71.4413C781.965 72.7015 779.727 73.9549 777.219 75.2013C774.8 76.4355 772.512 77.6512 770.356 78.8484C768.187 79.9579 766.293 81.1181 764.675 82.329C763.133 83.4399 762.21 84.5085 761.907 85.5346C761.838 88.2266 761.385 92.0008 760.548 96.8574C759.798 101.702 758.665 107.002 757.15 112.758C755.634 118.515 753.78 124.409 751.587 130.439C749.483 136.457 747.041 141.986 744.262 147.026C741.396 152.078 738.281 156.316 734.917 159.74C731.466 163.175 727.723 165.176 723.69 165.743C723.164 165.817 722.5 165.866 721.699 165.889C720.81 165.925 719.996 165.86 719.258 165.696C718.431 165.544 717.718 165.241 717.118 164.789C716.518 164.337 716.163 163.716 716.052 162.927Z" fill="white"/>
</g>
<defs>
<filter id="filter0_d_6_5" x="0.15712" y="0.942322" width="828.51" height="316.57" filterUnits="userSpaceOnUse" color-interpolation-filters="sRGB">
<feFlood flood-opacity="0" result="BackgroundImageFix"/>
<feColorMatrix in="SourceAlpha" type="matrix" values="0 0 0 0 0 0 0 0 0 0 0 0 0 0 0 0 0 0 127 0" result="hardAlpha"/>
<feOffset dy="4"/>
<feGaussianBlur stdDeviation="2"/>
<feComposite in2="hardAlpha" operator="out"/>
<feColorMatrix type="matrix" values="0 0 0 0 0 0 0 0 0 0 0 0 0 0 0 0 0 0 0.25 0"/>
<feBlend mode="normal" in2="BackgroundImageFix" result="effect1_dropShadow_6_5"/>
<feBlend mode="normal" in="SourceGraphic" in2="effect1_dropShadow_6_5" result="shape"/>
</filter>
</defs>
</svg>
